<svg width="32" height="32" viewBox="0 0 32 32" fill="none" xmlns="http://www.w3.org/2000/svg">
<circle cx="16.0004" cy="16" r="15.6" fill="#33BBF5"/>
<path d="M22.7123 11.5501C22.8671 11.7044 22.99 11.8877 23.0738 12.0896C23.1576 12.2914 23.2008 12.5078 23.2008 12.7264C23.2008 12.945 23.1576 13.1614 23.0738 13.3633C22.99 13.5652 22.8671 13.7485 22.7123 13.9028L14.9622 21.6529C14.8079 21.8077 14.6246 21.9306 14.4227 22.0144C14.2209 22.0982 14.0044 22.1414 13.7859 22.1414C13.5673 22.1414 13.3509 22.0982 13.149 22.0144C12.9471 21.9306 12.7638 21.8077 12.6095 21.6529L9.28804 18.3314C9.13356 18.177 9.01102 17.9936 8.92742 17.7917C8.84381 17.5899 8.80078 17.3735 8.80078 17.1551C8.80078 16.9366 8.84381 16.7203 8.92742 16.5184C9.01102 16.3166 9.13356 16.1332 9.28804 15.9787C9.44252 15.8242 9.62592 15.7017 9.82776 15.6181C10.0296 15.5345 10.2459 15.4914 10.4644 15.4914C10.6829 15.4914 10.8992 15.5345 11.101 15.6181C11.3029 15.7017 11.4863 15.8242 11.6408 15.9787L13.7873 18.1225L20.3624 11.5459C20.5169 11.3918 20.7003 11.2696 20.902 11.1864C21.1038 11.1032 21.32 11.0605 21.5382 11.0609C21.7565 11.0613 21.9725 11.1047 22.174 11.1886C22.3754 11.2726 22.5584 11.3954 22.7123 11.5501Z" fill="#23282E"/>
</svg>
