<svg width="53" height="52" viewBox="0 0 53 52" fill="none" xmlns="http://www.w3.org/2000/svg">
<path d="M44.6154 30.5678V11.5289C44.6154 10.616 44.0713 9.79531 43.2322 9.43569L31.8215 4.54538C30.3156 3.89999 28.6404 5.00461 28.6404 6.643V45.364C28.6404 47.0023 30.2967 48.0602 31.7211 47.2507C36.3633 44.6123 44.6154 38.7689 44.6154 30.5678Z" fill="#5191F0"/>
<path d="M8.10107 11.5289V30.5678C8.10107 38.7689 16.3531 44.6123 20.9954 47.2507C22.4198 48.0602 24.0761 47.0023 24.0761 45.364V6.643C24.0761 5.00461 22.4009 3.89999 20.8949 4.54538L9.48424 9.43569C8.64513 9.79531 8.10107 10.616 8.10107 11.5289Z" fill="#A3C8FF"/>
</svg>
