<svg width="40" height="40" viewBox="0 0 40 40" fill="none" xmlns="http://www.w3.org/2000/svg">
<path d="M33.783 23.5528V8.74486C33.783 8.03481 33.3599 7.39647 32.7072 7.11677L23.8322 3.31319C22.661 2.81122 21.358 3.67037 21.358 4.94468V35.061C21.358 36.3353 22.6463 37.1581 23.7541 36.5284C27.3648 34.4764 33.783 29.9315 33.783 23.5528Z" fill="#5191F0"/>
<path d="M5.383 8.74485V23.5528C5.383 29.9315 11.8013 34.4764 15.4119 36.5284C16.5198 37.1581 17.808 36.3353 17.808 35.061V4.94467C17.808 3.67037 16.5051 2.81122 15.3338 3.31319L6.45879 7.11676C5.80615 7.39647 5.383 8.0348 5.383 8.74485Z" fill="#A3C8FF"/>
</svg>
