<svg width="40" height="42" viewBox="0 0 40 42" fill="none" xmlns="http://www.w3.org/2000/svg">
<path d="M17.6802 19.5013C18.2754 20.1495 18.988 20.6883 19.7842 21.084C19.5511 22.2289 19.5331 23.5323 19.7537 24.8941C18.9243 24.7907 17.5493 24.4243 16.2224 23.441C15.1685 22.66 14.4914 21.5404 14.0793 20.5686C15.4298 20.4061 16.6596 20.0343 17.6802 19.5013Z" fill="#F0C243"/>
<path d="M13.9758 26.5226C16.7168 28.6576 19.299 28.5479 20.8294 28.3893C20.8619 28.4595 20.8948 28.5292 20.9283 28.5984C19.9575 29.4707 18.5905 30.161 17.1033 30.3722C15.3393 30.6226 13.422 30.1994 11.7741 28.605C10.1087 26.9937 9.62187 25.2114 9.66599 23.6438C9.70127 22.3904 10.0776 21.2731 10.4816 20.508C10.6234 20.5294 10.7664 20.5486 10.9105 20.5656C11.1342 22.2377 11.6291 24.6948 13.9758 26.5226Z" fill="#F0C243"/>
<path d="M18.9722 15.5569C18.9134 16.343 18.3438 17.2486 16.992 17.9796C15.6593 18.7004 13.7602 19.1204 11.623 18.9603C9.48592 18.8002 7.67055 18.102 6.46006 17.1907C5.23235 16.2664 4.80401 15.2861 4.86289 14.5C4.92178 13.7139 5.49139 12.8083 6.8431 12.0773C8.17585 11.3565 10.075 10.9365 12.2121 11.0966C14.3492 11.2567 16.1646 11.9549 17.3751 12.8662C18.6028 13.7905 19.0311 14.7708 18.9722 15.5569Z" fill="#F0C243"/>
<path d="M24.9977 31.187C26.2133 32.1272 27.2719 32.2815 28.0146 32.0172C28.7573 31.7529 29.4803 30.9645 29.8286 29.4677C30.172 27.9919 30.0757 26.0493 29.3571 24.0303C28.6386 22.0112 27.4859 20.4446 26.2873 19.5176C25.0718 18.5774 24.0131 18.4231 23.2705 18.6874C22.5278 18.9517 21.8048 19.7402 21.4565 21.2369C21.1131 22.7127 21.2094 24.6553 21.9279 26.6744C22.6465 28.6934 23.7992 30.26 24.9977 31.187Z" fill="#F0C243"/>
<path fill-rule="evenodd" clip-rule="evenodd" d="M3.33333 0H36.6667C37.5507 0 38.3986 0.351189 39.0237 0.976311C39.6488 1.60143 40 2.44928 40 3.33333V15.5625C40 34.1875 24.2083 40.375 21.0417 41.4167C20.3651 41.6393 19.6349 41.6393 18.9583 41.4167C15.7917 40.375 0 34.1875 0 15.5625V3.33333C0 2.44928 0.351189 1.60143 0.976311 0.976311C1.60143 0.351189 2.44928 0 3.33333 0ZM23.4223 3.57259C22.7627 4.51549 22.196 5.8853 22.0584 7.49423C19.9349 7.76677 18.101 8.96452 16.9738 10.6703C15.6588 10.0095 14.0688 9.56436 12.3366 9.4346C7.52251 9.07398 3.43231 11.2861 3.20088 14.3755C3.01501 16.8568 5.37482 19.1493 8.80515 20.1425C8.37729 21.0789 8.03706 22.2796 7.99998 23.5969C7.94408 25.5833 8.57991 27.8337 10.6152 29.8028C12.6687 31.7896 15.1159 32.3377 17.3376 32.0223C19.0177 31.7838 20.5779 31.0517 21.7671 30.0745C23.6282 32.8845 26.326 34.3873 28.5734 33.5874C31.4921 32.5486 32.546 28.0196 30.9273 23.4714C30.3381 21.8158 29.4759 20.3858 28.4768 19.2868C29.5407 18.032 30.1824 16.4079 30.1824 14.6339C30.1824 14.5355 30.1804 14.4376 30.1765 14.3402C31.5512 13.8814 32.9772 13.0226 34.1893 11.595C34.4872 11.2441 34.4442 10.7182 34.0934 10.4204C33.7425 10.1225 33.2167 10.1654 32.9188 10.5163C31.9981 11.6006 30.9362 12.2774 29.9102 12.6662C29.1201 9.87952 26.6936 7.78074 23.7349 7.474C23.868 6.24442 24.3061 5.21686 24.788 4.52796C25.0518 4.15083 24.96 3.63125 24.5828 3.36744C24.2057 3.10362 23.6861 3.19547 23.4223 3.57259Z" fill="#F0C243"/>
</svg>
