<svg width="57" height="55" viewBox="0 0 57 55" fill="none" xmlns="http://www.w3.org/2000/svg">
<g filter="url(#filter0_d_2499_166336)">
<path d="M47.1315 11.2628C46.5758 10.705 45.9154 10.2624 45.1883 9.96033C44.4611 9.65831 43.6814 9.50284 42.894 9.50284C42.1066 9.50284 41.327 9.65831 40.5998 9.96033C39.8726 10.2624 39.2122 10.705 38.6565 11.2628V11.2628C38.274 11.6336 37.9458 12.0566 37.6815 12.5191L32.394 11.0753C32.4069 9.88375 32.0647 8.71531 31.4111 7.71894C30.7574 6.72258 29.8218 5.94344 28.7236 5.48083C27.6254 5.01822 26.4143 4.8931 25.2448 5.12142C24.0752 5.34974 23.0001 5.92116 22.1565 6.76284V6.76284C21.253 7.66413 20.6605 8.83 20.4649 10.0911C20.2693 11.3522 20.481 12.6427 21.069 13.7753L14.7127 19.4941C13.5579 18.7309 12.1746 18.3905 10.7975 18.5306C9.42034 18.6708 8.134 19.2827 7.15649 20.2628V20.2628C6.59864 20.8186 6.15601 21.4789 5.85398 22.2061C5.55196 22.9333 5.39648 23.7129 5.39648 24.5004C5.39648 25.2878 5.55196 26.0674 5.85398 26.7946C6.15601 27.5218 6.59864 28.1821 7.15649 28.7379C7.71011 29.2987 8.37004 29.7434 9.09766 30.0461C9.82527 30.3487 10.606 30.5031 11.394 30.5004C12.7804 30.5022 14.1248 30.0253 15.2002 29.1504L28.3253 38.7691C27.89 39.8594 27.7842 41.0533 28.0208 42.2031C28.2574 43.353 28.8261 44.4081 29.6565 45.2379C30.2122 45.7957 30.8726 46.2384 31.5998 46.5404C32.327 46.8424 33.1066 46.9979 33.894 46.9979C34.6814 46.9979 35.4611 46.8424 36.1882 46.5404C36.9154 46.2384 37.5758 45.7957 38.1315 45.2379C38.6894 44.6822 39.132 44.0218 39.434 43.2946C39.736 42.5674 39.8915 41.7878 39.8915 41.0004C39.8915 40.213 39.736 39.4333 39.434 38.7061C39.132 37.979 38.6894 37.3186 38.1315 36.7629C37.856 36.4922 37.5615 36.2416 37.2503 36.0129L42.369 21.4816H42.894C43.6821 21.4844 44.4627 21.3299 45.1904 21.0273C45.918 20.7247 46.5779 20.2799 47.1315 19.7191C48.2525 18.5975 48.8821 17.0767 48.8821 15.491C48.8821 13.9053 48.2525 12.3844 47.1315 11.2628V11.2628ZM34.419 35.0191C32.8576 34.8877 31.3058 35.3646 30.0878 36.3504L16.9627 26.7316C17.2806 25.9278 17.4233 25.0655 17.3812 24.2022C17.3392 23.3389 17.1134 22.4944 16.719 21.7253L23.0753 16.0066C24.0616 16.6529 25.2148 16.9982 26.394 17.0003C27.182 17.0031 27.9627 16.8487 28.6903 16.546C29.418 16.2434 30.0779 15.7987 30.6315 15.2378C31.014 14.867 31.3422 14.4441 31.6065 13.9816L36.894 15.4253C36.8812 16.226 37.0307 17.0209 37.3336 17.7621C37.6366 18.5033 38.0866 19.1754 38.6565 19.7378C38.9321 20.0085 39.2266 20.2591 39.5378 20.4878L34.419 35.0191Z" fill="#13AEAD"/>
</g>
<defs>
<filter id="filter0_d_2499_166336" x="0.596485" y="0.210254" width="56.2856" height="54.7878" filterUnits="userSpaceOnUse" color-interpolation-filters="sRGB">
<feFlood flood-opacity="0" result="BackgroundImageFix"/>
<feColorMatrix in="SourceAlpha" type="matrix" values="0 0 0 0 0 0 0 0 0 0 0 0 0 0 0 0 0 0 127 0" result="hardAlpha"/>
<feOffset dx="1.6" dy="1.6"/>
<feGaussianBlur stdDeviation="3.2"/>
<feComposite in2="hardAlpha" operator="out"/>
<feColorMatrix type="matrix" values="0 0 0 0 0 0 0 0 0 0 0 0 0 0 0 0 0 0 0.22 0"/>
<feBlend mode="normal" in2="BackgroundImageFix" result="effect1_dropShadow_2499_166336"/>
<feBlend mode="normal" in="SourceGraphic" in2="effect1_dropShadow_2499_166336" result="shape"/>
</filter>
</defs>
</svg>
