<svg width="40" height="40" viewBox="0 0 40 40" fill="none" xmlns="http://www.w3.org/2000/svg">
<path fill-rule="evenodd" clip-rule="evenodd" d="M7.56511 6H33.2162C33.8966 6 34.549 6.27025 35.0301 6.7513C35.5111 7.23236 35.7814 7.8848 35.7814 8.56511V17.9759C35.7814 32.3084 23.6291 37.0699 21.1923 37.8715C20.6716 38.0428 20.1098 38.0428 19.5891 37.8715C17.1522 37.0699 5 32.3084 5 17.9759V8.56511C5 7.8848 5.27025 7.23236 5.7513 6.7513C6.23236 6.27025 6.8848 6 7.56511 6ZM23.0243 8.74924C22.5167 9.47483 22.0806 10.5289 21.9746 11.7671C20.3405 11.9768 18.9292 12.8985 18.0618 14.2111C17.0499 13.7027 15.8264 13.3601 14.4934 13.2602C10.7888 12.9827 7.64124 14.685 7.46315 17.0624C7.32012 18.9719 9.13609 20.736 11.7759 21.5004C11.4466 22.2209 11.1848 23.1449 11.1563 24.1587C11.1133 25.6872 11.6025 27.4189 13.1688 28.9343C14.749 30.4632 16.6322 30.885 18.3419 30.6422C19.6347 30.4587 20.8353 29.8954 21.7505 29.1434C23.1827 31.3057 25.2587 32.4622 26.9882 31.8467C29.2342 31.0473 30.0452 27.562 28.7996 24.0621C28.3461 22.788 27.6826 21.6876 26.9138 20.8418C27.7325 19.8762 28.2263 18.6264 28.2263 17.2613C28.2263 17.1856 28.2248 17.1102 28.2218 17.0352C29.2797 16.6822 30.377 16.0213 31.3098 14.9227C31.539 14.6527 31.5059 14.2481 31.236 14.0188C30.966 13.7896 30.5613 13.8226 30.3321 14.0926C29.6236 14.9271 28.8064 15.4479 28.0168 15.7471C27.4088 13.6027 25.5416 11.9876 23.2648 11.7515C23.3672 10.8053 23.7043 10.0146 24.0752 9.48442C24.2782 9.19421 24.2075 8.79438 23.9173 8.59136C23.6271 8.38835 23.2273 8.45903 23.0243 8.74924ZM18.6054 21.0069C19.0635 21.5057 19.6118 21.9204 20.2245 22.2249C20.0451 23.1059 20.0313 24.1089 20.2011 25.1568C19.5628 25.0773 18.5047 24.7953 17.4836 24.0386C16.6726 23.4377 16.1516 22.576 15.8345 21.8283C16.8737 21.7032 17.82 21.4171 18.6054 21.0069ZM15.7548 26.4101C17.8641 28.053 19.8512 27.9686 21.0288 27.8465C21.0538 27.9006 21.0792 27.9542 21.105 28.0075C20.3579 28.6788 19.306 29.2099 18.1616 29.3724C16.8042 29.5652 15.3287 29.2395 14.0606 28.0125C12.779 26.7726 12.4044 25.4011 12.4383 24.1947C12.4655 23.2301 12.7551 22.3704 13.066 21.7816C13.1751 21.7981 13.2851 21.8128 13.396 21.8259C13.5681 23.1127 13.949 25.0035 15.7548 26.4101ZM19.5998 17.9716C19.5544 18.5765 19.1161 19.2734 18.0759 19.8359C17.0503 20.3906 15.5889 20.7138 13.9443 20.5906C12.2997 20.4674 10.9027 19.9301 9.9712 19.2288C9.02643 18.5175 8.69681 17.7632 8.74213 17.1582C8.78744 16.5533 9.22577 15.8565 10.266 15.2939C11.2916 14.7392 12.753 14.416 14.3976 14.5392C16.0422 14.6624 17.4392 15.1997 18.3707 15.901C19.3154 16.6123 19.6451 17.3667 19.5998 17.9716ZM24.2365 29.9995C25.172 30.723 25.9866 30.8417 26.5581 30.6383C27.1296 30.4349 27.686 29.8282 27.9541 28.6764C28.2183 27.5408 28.1442 26.0458 27.5912 24.4921C27.0383 22.9384 26.1512 21.7328 25.2289 21.0195C24.2935 20.296 23.4788 20.1772 22.9074 20.3806C22.3359 20.584 21.7794 21.1907 21.5114 22.3425C21.2472 23.4782 21.3212 24.9731 21.8742 26.5268C22.4272 28.0805 23.3142 29.2861 24.2365 29.9995Z" fill="#04A4B0"/>
</svg>
